%TF.GenerationSoftware,KiCad,Pcbnew,10.0.4*%
%TF.CreationDate,2026-07-15T12:59:42+05:30*%
%TF.ProjectId,macropad obulu,6d616372-6f70-4616-9420-6f62756c752e,rev?*%
%TF.SameCoordinates,Original*%
%TF.FileFunction,Copper,L1,Top*%
%TF.FilePolarity,Positive*%
%FSLAX46Y46*%
G04 Gerber Fmt 4.6, Leading zero omitted, Abs format (unit mm)*
G04 Created by KiCad (PCBNEW 10.0.4) date 2026-07-15 12:59:42*
%MOMM*%
%LPD*%
G01*
G04 APERTURE LIST*
G04 Aperture macros list*
%AMRoundRect*
0 Rectangle with rounded corners*
0 $1 Rounding radius*
0 $2 $3 $4 $5 $6 $7 $8 $9 X,Y pos of 4 corners*
0 Add a 4 corners polygon primitive as box body*
4,1,4,$2,$3,$4,$5,$6,$7,$8,$9,$2,$3,0*
0 Add four circle primitives for the rounded corners*
1,1,$1+$1,$2,$3*
1,1,$1+$1,$4,$5*
1,1,$1+$1,$6,$7*
1,1,$1+$1,$8,$9*
0 Add four rect primitives between the rounded corners*
20,1,$1+$1,$2,$3,$4,$5,0*
20,1,$1+$1,$4,$5,$6,$7,0*
20,1,$1+$1,$6,$7,$8,$9,0*
20,1,$1+$1,$8,$9,$2,$3,0*%
G04 Aperture macros list end*
%TA.AperFunction,ComponentPad*%
%ADD10RoundRect,0.170000X-0.680000X-0.680000X0.680000X-0.680000X0.680000X0.680000X-0.680000X0.680000X0*%
%TD*%
%TA.AperFunction,ComponentPad*%
%ADD11C,1.700000*%
%TD*%
%TA.AperFunction,ComponentPad*%
%ADD12C,2.200000*%
%TD*%
%TA.AperFunction,ComponentPad*%
%ADD13O,3.700000X1.700000*%
%TD*%
%TA.AperFunction,ComponentPad*%
%ADD14O,3.600000X1.700000*%
%TD*%
%TA.AperFunction,ComponentPad*%
%ADD15R,3.500000X1.700000*%
%TD*%
%TA.AperFunction,ViaPad*%
%ADD16C,0.500000*%
%TD*%
%TA.AperFunction,Conductor*%
%ADD17C,0.300000*%
%TD*%
G04 APERTURE END LIST*
D10*
%TO.P,U3,1,GND_1*%
%TO.N,GND*%
X228380000Y-64000000D03*
D11*
%TO.P,U3,2,VCC_2*%
%TO.N,Net-(U1-3V3)*%
X230920000Y-64000000D03*
%TO.P,U3,3,SCL_3*%
%TO.N,GND*%
X233460000Y-64000000D03*
%TO.P,U3,4,SDA_4*%
%TO.N,Net-(U1-PA8_A4_D4_SDA)*%
X236000000Y-64000000D03*
%TD*%
D12*
%TO.P,SW3,2,2_2*%
%TO.N,GND*%
X204510000Y-117860000D03*
%TO.P,SW3,1,1_1*%
%TO.N,Net-(U1-PA7_A8_D8_SCK)*%
X210860000Y-115320000D03*
%TD*%
%TO.P,SW2,2,2_2*%
%TO.N,GND*%
X226710000Y-117860000D03*
%TO.P,SW2,1,1_1*%
%TO.N,Net-(U1-PA5_A9_D9_MISO)*%
X233060000Y-115320000D03*
%TD*%
%TO.P,SW1,2,2_2*%
%TO.N,GND*%
X204510000Y-95060000D03*
%TO.P,SW1,1,1_1*%
%TO.N,Net-(U1-PA6_A10_D10_MOSI)*%
X210860000Y-92520000D03*
%TD*%
D13*
%TO.P,U1,14,5V_14*%
%TO.N,unconnected-(U1-5V-Pad14)*%
X217000000Y-62760000D03*
%TO.P,U1,13,GND_13*%
%TO.N,GND*%
X217000000Y-65300000D03*
%TO.P,U1,12,3V3_12*%
%TO.N,Net-(U1-3V3)*%
X217000000Y-67840000D03*
%TO.P,U1,11,PA6_A10_D10_MOSI_11*%
%TO.N,Net-(U1-PA6_A10_D10_MOSI)*%
X217000000Y-70380000D03*
D14*
%TO.P,U1,10,PA5_A9_D9_MISO_10*%
%TO.N,Net-(U1-PA5_A9_D9_MISO)*%
X217000000Y-72920000D03*
%TO.P,U1,9,PA7_A8_D8_SCK_9*%
%TO.N,Net-(U1-PA7_A8_D8_SCK)*%
X217000000Y-75460000D03*
%TO.P,U1,8,PB09_A7_D7_RX_8*%
%TO.N,unconnected-(U1-PB09_A7_D7_RX-Pad8)*%
X217000000Y-78000000D03*
%TO.P,U1,7,PB08_A6_D6_TX_7*%
%TO.N,unconnected-(U1-PB08_A6_D6_TX-Pad7)*%
X199750000Y-78000000D03*
%TO.P,U1,6,PA9_A5_D5_SCL_6*%
%TO.N,GND*%
X199750000Y-75460000D03*
%TO.P,U1,5,PA8_A4_D4_SDA_5*%
%TO.N,Net-(U1-PA8_A4_D4_SDA)*%
X199750000Y-72920000D03*
%TO.P,U1,4,PA11_A3_D3_4*%
%TO.N,unconnected-(U1-PA11_A3_D3-Pad4)*%
X199750000Y-70380000D03*
%TO.P,U1,3,PA10_A2_D2_3*%
%TO.N,unconnected-(U1-PA10_A2_D2-Pad3)*%
X199750000Y-67840000D03*
%TO.P,U1,2,PA4_A1_D1_2*%
%TO.N,unconnected-(U1-PA4_A1_D1-Pad2)*%
X199750000Y-65300000D03*
D15*
%TO.P,U1,1,PA02_A0_D0_1*%
%TO.N,unconnected-(U1-PA02_A0_D0-Pad1)*%
X199750000Y-62760000D03*
%TD*%
D16*
%TO.N,Net-(U1-PA5_A9_D9_MISO)*%
X219000000Y-72900000D03*
%TD*%
%TO.N,Net-(U1-PA5_A9_D9_MISO)*%
D17*
X218900000Y-73000000D02*
X219000000Y-72900000D01*
X218900000Y-78700000D02*
X218900000Y-73000000D01*
X216600000Y-81000000D02*
X218900000Y-78700000D01*
X216600000Y-87600000D02*
X216600000Y-81000000D01*
X216000000Y-88200000D02*
X216600000Y-87600000D01*
X216000000Y-98200000D02*
X216000000Y-88200000D01*
X233100000Y-115300000D02*
X216000000Y-98200000D01*
%TO.N,Net-(U1-PA7_A8_D8_SCK)*%
X210900000Y-96700000D02*
X210900000Y-115300000D01*
X209700000Y-95500000D02*
X210900000Y-96700000D01*
X209300000Y-95200000D02*
X209600000Y-95500000D01*
X209300000Y-91800000D02*
X209300000Y-95200000D01*
X210900000Y-90200000D02*
X209300000Y-91800000D01*
X210900000Y-80300000D02*
X210900000Y-90200000D01*
X214500000Y-76700000D02*
X210900000Y-80300000D01*
X214800000Y-76700000D02*
X214500000Y-76700000D01*
X216000000Y-75500000D02*
X214800000Y-76700000D01*
%TO.N,Net-(U1-PA8_A4_D4_SDA)*%
X202800000Y-71200000D02*
X201100000Y-72900000D01*
X203000000Y-70900000D02*
X202800000Y-71100000D01*
X203000000Y-70700000D02*
X203000000Y-70900000D01*
X212300000Y-61400000D02*
X203000000Y-70700000D01*
X217500000Y-61400000D02*
X212300000Y-61400000D01*
X218800000Y-62700000D02*
X217500000Y-61400000D01*
X234000000Y-62700000D02*
X218800000Y-62700000D01*
X235600000Y-64300000D02*
X234000000Y-62700000D01*
X235700000Y-64300000D02*
X235600000Y-64300000D01*
%TO.N,Net-(U1-PA6_A10_D10_MOSI)*%
X218100000Y-72200000D02*
X216300000Y-70400000D01*
X218300000Y-72500000D02*
X218100000Y-72300000D01*
X218300000Y-78500000D02*
X218300000Y-72500000D01*
X216000000Y-80800000D02*
X218300000Y-78500000D01*
X216000000Y-87400000D02*
X216000000Y-80800000D01*
X210900000Y-92500000D02*
X216000000Y-87400000D01*
%TO.N,Net-(U1-3V3)*%
X227100000Y-67800000D02*
X216000000Y-67800000D01*
X230900000Y-64000000D02*
X227100000Y-67800000D01*
%TD*%
M02*
