%TF.GenerationSoftware,KiCad,Pcbnew,10.0.4*%
%TF.CreationDate,2026-07-15T12:59:43+05:30*%
%TF.ProjectId,macropad obulu,6d616372-6f70-4616-9420-6f62756c752e,rev?*%
%TF.SameCoordinates,Original*%
%TF.FileFunction,Legend,Top*%
%TF.FilePolarity,Positive*%
%FSLAX46Y46*%
G04 Gerber Fmt 4.6, Leading zero omitted, Abs format (unit mm)*
G04 Created by KiCad (PCBNEW 10.0.4) date 2026-07-15 12:59:43*
%MOMM*%
%LPD*%
G01*
G04 APERTURE LIST*
%ADD10C,0.150000*%
%ADD11C,0.101600*%
%ADD12C,0.120000*%
%ADD13C,0.025400*%
%ADD14C,0.254000*%
%ADD15C,0.127000*%
G04 APERTURE END LIST*
D10*
X231618095Y-60954819D02*
X231618095Y-61764342D01*
X231618095Y-61764342D02*
X231665714Y-61859580D01*
X231665714Y-61859580D02*
X231713333Y-61907200D01*
X231713333Y-61907200D02*
X231808571Y-61954819D01*
X231808571Y-61954819D02*
X231999047Y-61954819D01*
X231999047Y-61954819D02*
X232094285Y-61907200D01*
X232094285Y-61907200D02*
X232141904Y-61859580D01*
X232141904Y-61859580D02*
X232189523Y-61764342D01*
X232189523Y-61764342D02*
X232189523Y-60954819D01*
X232570476Y-60954819D02*
X233189523Y-60954819D01*
X233189523Y-60954819D02*
X232856190Y-61335771D01*
X232856190Y-61335771D02*
X232999047Y-61335771D01*
X232999047Y-61335771D02*
X233094285Y-61383390D01*
X233094285Y-61383390D02*
X233141904Y-61431009D01*
X233141904Y-61431009D02*
X233189523Y-61526247D01*
X233189523Y-61526247D02*
X233189523Y-61764342D01*
X233189523Y-61764342D02*
X233141904Y-61859580D01*
X233141904Y-61859580D02*
X233094285Y-61907200D01*
X233094285Y-61907200D02*
X232999047Y-61954819D01*
X232999047Y-61954819D02*
X232713333Y-61954819D01*
X232713333Y-61954819D02*
X232618095Y-61907200D01*
X232618095Y-61907200D02*
X232570476Y-61859580D01*
X206986667Y-112933200D02*
X207129524Y-112980819D01*
X207129524Y-112980819D02*
X207367619Y-112980819D01*
X207367619Y-112980819D02*
X207462857Y-112933200D01*
X207462857Y-112933200D02*
X207510476Y-112885580D01*
X207510476Y-112885580D02*
X207558095Y-112790342D01*
X207558095Y-112790342D02*
X207558095Y-112695104D01*
X207558095Y-112695104D02*
X207510476Y-112599866D01*
X207510476Y-112599866D02*
X207462857Y-112552247D01*
X207462857Y-112552247D02*
X207367619Y-112504628D01*
X207367619Y-112504628D02*
X207177143Y-112457009D01*
X207177143Y-112457009D02*
X207081905Y-112409390D01*
X207081905Y-112409390D02*
X207034286Y-112361771D01*
X207034286Y-112361771D02*
X206986667Y-112266533D01*
X206986667Y-112266533D02*
X206986667Y-112171295D01*
X206986667Y-112171295D02*
X207034286Y-112076057D01*
X207034286Y-112076057D02*
X207081905Y-112028438D01*
X207081905Y-112028438D02*
X207177143Y-111980819D01*
X207177143Y-111980819D02*
X207415238Y-111980819D01*
X207415238Y-111980819D02*
X207558095Y-112028438D01*
X207891429Y-111980819D02*
X208129524Y-112980819D01*
X208129524Y-112980819D02*
X208320000Y-112266533D01*
X208320000Y-112266533D02*
X208510476Y-112980819D01*
X208510476Y-112980819D02*
X208748572Y-111980819D01*
X209034286Y-111980819D02*
X209653333Y-111980819D01*
X209653333Y-111980819D02*
X209320000Y-112361771D01*
X209320000Y-112361771D02*
X209462857Y-112361771D01*
X209462857Y-112361771D02*
X209558095Y-112409390D01*
X209558095Y-112409390D02*
X209605714Y-112457009D01*
X209605714Y-112457009D02*
X209653333Y-112552247D01*
X209653333Y-112552247D02*
X209653333Y-112790342D01*
X209653333Y-112790342D02*
X209605714Y-112885580D01*
X209605714Y-112885580D02*
X209558095Y-112933200D01*
X209558095Y-112933200D02*
X209462857Y-112980819D01*
X209462857Y-112980819D02*
X209177143Y-112980819D01*
X209177143Y-112980819D02*
X209081905Y-112933200D01*
X209081905Y-112933200D02*
X209034286Y-112885580D01*
X229186667Y-112933200D02*
X229329524Y-112980819D01*
X229329524Y-112980819D02*
X229567619Y-112980819D01*
X229567619Y-112980819D02*
X229662857Y-112933200D01*
X229662857Y-112933200D02*
X229710476Y-112885580D01*
X229710476Y-112885580D02*
X229758095Y-112790342D01*
X229758095Y-112790342D02*
X229758095Y-112695104D01*
X229758095Y-112695104D02*
X229710476Y-112599866D01*
X229710476Y-112599866D02*
X229662857Y-112552247D01*
X229662857Y-112552247D02*
X229567619Y-112504628D01*
X229567619Y-112504628D02*
X229377143Y-112457009D01*
X229377143Y-112457009D02*
X229281905Y-112409390D01*
X229281905Y-112409390D02*
X229234286Y-112361771D01*
X229234286Y-112361771D02*
X229186667Y-112266533D01*
X229186667Y-112266533D02*
X229186667Y-112171295D01*
X229186667Y-112171295D02*
X229234286Y-112076057D01*
X229234286Y-112076057D02*
X229281905Y-112028438D01*
X229281905Y-112028438D02*
X229377143Y-111980819D01*
X229377143Y-111980819D02*
X229615238Y-111980819D01*
X229615238Y-111980819D02*
X229758095Y-112028438D01*
X230091429Y-111980819D02*
X230329524Y-112980819D01*
X230329524Y-112980819D02*
X230520000Y-112266533D01*
X230520000Y-112266533D02*
X230710476Y-112980819D01*
X230710476Y-112980819D02*
X230948572Y-111980819D01*
X231281905Y-112076057D02*
X231329524Y-112028438D01*
X231329524Y-112028438D02*
X231424762Y-111980819D01*
X231424762Y-111980819D02*
X231662857Y-111980819D01*
X231662857Y-111980819D02*
X231758095Y-112028438D01*
X231758095Y-112028438D02*
X231805714Y-112076057D01*
X231805714Y-112076057D02*
X231853333Y-112171295D01*
X231853333Y-112171295D02*
X231853333Y-112266533D01*
X231853333Y-112266533D02*
X231805714Y-112409390D01*
X231805714Y-112409390D02*
X231234286Y-112980819D01*
X231234286Y-112980819D02*
X231853333Y-112980819D01*
X206986667Y-90133200D02*
X207129524Y-90180819D01*
X207129524Y-90180819D02*
X207367619Y-90180819D01*
X207367619Y-90180819D02*
X207462857Y-90133200D01*
X207462857Y-90133200D02*
X207510476Y-90085580D01*
X207510476Y-90085580D02*
X207558095Y-89990342D01*
X207558095Y-89990342D02*
X207558095Y-89895104D01*
X207558095Y-89895104D02*
X207510476Y-89799866D01*
X207510476Y-89799866D02*
X207462857Y-89752247D01*
X207462857Y-89752247D02*
X207367619Y-89704628D01*
X207367619Y-89704628D02*
X207177143Y-89657009D01*
X207177143Y-89657009D02*
X207081905Y-89609390D01*
X207081905Y-89609390D02*
X207034286Y-89561771D01*
X207034286Y-89561771D02*
X206986667Y-89466533D01*
X206986667Y-89466533D02*
X206986667Y-89371295D01*
X206986667Y-89371295D02*
X207034286Y-89276057D01*
X207034286Y-89276057D02*
X207081905Y-89228438D01*
X207081905Y-89228438D02*
X207177143Y-89180819D01*
X207177143Y-89180819D02*
X207415238Y-89180819D01*
X207415238Y-89180819D02*
X207558095Y-89228438D01*
X207891429Y-89180819D02*
X208129524Y-90180819D01*
X208129524Y-90180819D02*
X208320000Y-89466533D01*
X208320000Y-89466533D02*
X208510476Y-90180819D01*
X208510476Y-90180819D02*
X208748572Y-89180819D01*
X209653333Y-90180819D02*
X209081905Y-90180819D01*
X209367619Y-90180819D02*
X209367619Y-89180819D01*
X209367619Y-89180819D02*
X209272381Y-89323676D01*
X209272381Y-89323676D02*
X209177143Y-89418914D01*
X209177143Y-89418914D02*
X209081905Y-89466533D01*
D11*
X207697666Y-72436985D02*
X207697666Y-73156652D01*
X207697666Y-73156652D02*
X207740000Y-73241318D01*
X207740000Y-73241318D02*
X207782333Y-73283652D01*
X207782333Y-73283652D02*
X207867000Y-73325985D01*
X207867000Y-73325985D02*
X208036333Y-73325985D01*
X208036333Y-73325985D02*
X208121000Y-73283652D01*
X208121000Y-73283652D02*
X208163333Y-73241318D01*
X208163333Y-73241318D02*
X208205666Y-73156652D01*
X208205666Y-73156652D02*
X208205666Y-72436985D01*
X209094666Y-73325985D02*
X208586666Y-73325985D01*
X208840666Y-73325985D02*
X208840666Y-72436985D01*
X208840666Y-72436985D02*
X208755999Y-72563985D01*
X208755999Y-72563985D02*
X208671333Y-72648652D01*
X208671333Y-72648652D02*
X208586666Y-72690985D01*
D10*
X203613095Y-69287200D02*
X203755952Y-69334819D01*
X203755952Y-69334819D02*
X203994047Y-69334819D01*
X203994047Y-69334819D02*
X204089285Y-69287200D01*
X204089285Y-69287200D02*
X204136904Y-69239580D01*
X204136904Y-69239580D02*
X204184523Y-69144342D01*
X204184523Y-69144342D02*
X204184523Y-69049104D01*
X204184523Y-69049104D02*
X204136904Y-68953866D01*
X204136904Y-68953866D02*
X204089285Y-68906247D01*
X204089285Y-68906247D02*
X203994047Y-68858628D01*
X203994047Y-68858628D02*
X203803571Y-68811009D01*
X203803571Y-68811009D02*
X203708333Y-68763390D01*
X203708333Y-68763390D02*
X203660714Y-68715771D01*
X203660714Y-68715771D02*
X203613095Y-68620533D01*
X203613095Y-68620533D02*
X203613095Y-68525295D01*
X203613095Y-68525295D02*
X203660714Y-68430057D01*
X203660714Y-68430057D02*
X203708333Y-68382438D01*
X203708333Y-68382438D02*
X203803571Y-68334819D01*
X203803571Y-68334819D02*
X204041666Y-68334819D01*
X204041666Y-68334819D02*
X204184523Y-68382438D01*
X204994047Y-69287200D02*
X204898809Y-69334819D01*
X204898809Y-69334819D02*
X204708333Y-69334819D01*
X204708333Y-69334819D02*
X204613095Y-69287200D01*
X204613095Y-69287200D02*
X204565476Y-69191961D01*
X204565476Y-69191961D02*
X204565476Y-68811009D01*
X204565476Y-68811009D02*
X204613095Y-68715771D01*
X204613095Y-68715771D02*
X204708333Y-68668152D01*
X204708333Y-68668152D02*
X204898809Y-68668152D01*
X204898809Y-68668152D02*
X204994047Y-68715771D01*
X204994047Y-68715771D02*
X205041666Y-68811009D01*
X205041666Y-68811009D02*
X205041666Y-68906247D01*
X205041666Y-68906247D02*
X204565476Y-69001485D01*
X205851190Y-69287200D02*
X205755952Y-69334819D01*
X205755952Y-69334819D02*
X205565476Y-69334819D01*
X205565476Y-69334819D02*
X205470238Y-69287200D01*
X205470238Y-69287200D02*
X205422619Y-69191961D01*
X205422619Y-69191961D02*
X205422619Y-68811009D01*
X205422619Y-68811009D02*
X205470238Y-68715771D01*
X205470238Y-68715771D02*
X205565476Y-68668152D01*
X205565476Y-68668152D02*
X205755952Y-68668152D01*
X205755952Y-68668152D02*
X205851190Y-68715771D01*
X205851190Y-68715771D02*
X205898809Y-68811009D01*
X205898809Y-68811009D02*
X205898809Y-68906247D01*
X205898809Y-68906247D02*
X205422619Y-69001485D01*
X206708333Y-69287200D02*
X206613095Y-69334819D01*
X206613095Y-69334819D02*
X206422619Y-69334819D01*
X206422619Y-69334819D02*
X206327381Y-69287200D01*
X206327381Y-69287200D02*
X206279762Y-69191961D01*
X206279762Y-69191961D02*
X206279762Y-68811009D01*
X206279762Y-68811009D02*
X206327381Y-68715771D01*
X206327381Y-68715771D02*
X206422619Y-68668152D01*
X206422619Y-68668152D02*
X206613095Y-68668152D01*
X206613095Y-68668152D02*
X206708333Y-68715771D01*
X206708333Y-68715771D02*
X206755952Y-68811009D01*
X206755952Y-68811009D02*
X206755952Y-68906247D01*
X206755952Y-68906247D02*
X206279762Y-69001485D01*
X207613095Y-69334819D02*
X207613095Y-68334819D01*
X207613095Y-69287200D02*
X207517857Y-69334819D01*
X207517857Y-69334819D02*
X207327381Y-69334819D01*
X207327381Y-69334819D02*
X207232143Y-69287200D01*
X207232143Y-69287200D02*
X207184524Y-69239580D01*
X207184524Y-69239580D02*
X207136905Y-69144342D01*
X207136905Y-69144342D02*
X207136905Y-68858628D01*
X207136905Y-68858628D02*
X207184524Y-68763390D01*
X207184524Y-68763390D02*
X207232143Y-68715771D01*
X207232143Y-68715771D02*
X207327381Y-68668152D01*
X207327381Y-68668152D02*
X207517857Y-68668152D01*
X207517857Y-68668152D02*
X207613095Y-68715771D01*
X208803572Y-69287200D02*
X208946429Y-69334819D01*
X208946429Y-69334819D02*
X209184524Y-69334819D01*
X209184524Y-69334819D02*
X209279762Y-69287200D01*
X209279762Y-69287200D02*
X209327381Y-69239580D01*
X209327381Y-69239580D02*
X209375000Y-69144342D01*
X209375000Y-69144342D02*
X209375000Y-69049104D01*
X209375000Y-69049104D02*
X209327381Y-68953866D01*
X209327381Y-68953866D02*
X209279762Y-68906247D01*
X209279762Y-68906247D02*
X209184524Y-68858628D01*
X209184524Y-68858628D02*
X208994048Y-68811009D01*
X208994048Y-68811009D02*
X208898810Y-68763390D01*
X208898810Y-68763390D02*
X208851191Y-68715771D01*
X208851191Y-68715771D02*
X208803572Y-68620533D01*
X208803572Y-68620533D02*
X208803572Y-68525295D01*
X208803572Y-68525295D02*
X208851191Y-68430057D01*
X208851191Y-68430057D02*
X208898810Y-68382438D01*
X208898810Y-68382438D02*
X208994048Y-68334819D01*
X208994048Y-68334819D02*
X209232143Y-68334819D01*
X209232143Y-68334819D02*
X209375000Y-68382438D01*
X209660715Y-68668152D02*
X210041667Y-68668152D01*
X209803572Y-68334819D02*
X209803572Y-69191961D01*
X209803572Y-69191961D02*
X209851191Y-69287200D01*
X209851191Y-69287200D02*
X209946429Y-69334819D01*
X209946429Y-69334819D02*
X210041667Y-69334819D01*
X210803572Y-68668152D02*
X210803572Y-69334819D01*
X210375001Y-68668152D02*
X210375001Y-69191961D01*
X210375001Y-69191961D02*
X210422620Y-69287200D01*
X210422620Y-69287200D02*
X210517858Y-69334819D01*
X210517858Y-69334819D02*
X210660715Y-69334819D01*
X210660715Y-69334819D02*
X210755953Y-69287200D01*
X210755953Y-69287200D02*
X210803572Y-69239580D01*
X211708334Y-69334819D02*
X211708334Y-68334819D01*
X211708334Y-69287200D02*
X211613096Y-69334819D01*
X211613096Y-69334819D02*
X211422620Y-69334819D01*
X211422620Y-69334819D02*
X211327382Y-69287200D01*
X211327382Y-69287200D02*
X211279763Y-69239580D01*
X211279763Y-69239580D02*
X211232144Y-69144342D01*
X211232144Y-69144342D02*
X211232144Y-68858628D01*
X211232144Y-68858628D02*
X211279763Y-68763390D01*
X211279763Y-68763390D02*
X211327382Y-68715771D01*
X211327382Y-68715771D02*
X211422620Y-68668152D01*
X211422620Y-68668152D02*
X211613096Y-68668152D01*
X211613096Y-68668152D02*
X211708334Y-68715771D01*
X212184525Y-69334819D02*
X212184525Y-68668152D01*
X212184525Y-68334819D02*
X212136906Y-68382438D01*
X212136906Y-68382438D02*
X212184525Y-68430057D01*
X212184525Y-68430057D02*
X212232144Y-68382438D01*
X212232144Y-68382438D02*
X212184525Y-68334819D01*
X212184525Y-68334819D02*
X212184525Y-68430057D01*
X212803572Y-69334819D02*
X212708334Y-69287200D01*
X212708334Y-69287200D02*
X212660715Y-69239580D01*
X212660715Y-69239580D02*
X212613096Y-69144342D01*
X212613096Y-69144342D02*
X212613096Y-68858628D01*
X212613096Y-68858628D02*
X212660715Y-68763390D01*
X212660715Y-68763390D02*
X212708334Y-68715771D01*
X212708334Y-68715771D02*
X212803572Y-68668152D01*
X212803572Y-68668152D02*
X212946429Y-68668152D01*
X212946429Y-68668152D02*
X213041667Y-68715771D01*
X213041667Y-68715771D02*
X213089286Y-68763390D01*
X213089286Y-68763390D02*
X213136905Y-68858628D01*
X213136905Y-68858628D02*
X213136905Y-69144342D01*
X213136905Y-69144342D02*
X213089286Y-69239580D01*
X213089286Y-69239580D02*
X213041667Y-69287200D01*
X213041667Y-69287200D02*
X212946429Y-69334819D01*
X212946429Y-69334819D02*
X212803572Y-69334819D01*
X206851191Y-70334819D02*
X207517857Y-71334819D01*
X207517857Y-70334819D02*
X206851191Y-71334819D01*
X207898810Y-71334819D02*
X207898810Y-70334819D01*
X208327381Y-71049104D02*
X208803571Y-71049104D01*
X208232143Y-71334819D02*
X208565476Y-70334819D01*
X208565476Y-70334819D02*
X208898809Y-71334819D01*
X209422619Y-70334819D02*
X209613095Y-70334819D01*
X209613095Y-70334819D02*
X209708333Y-70382438D01*
X209708333Y-70382438D02*
X209803571Y-70477676D01*
X209803571Y-70477676D02*
X209851190Y-70668152D01*
X209851190Y-70668152D02*
X209851190Y-71001485D01*
X209851190Y-71001485D02*
X209803571Y-71191961D01*
X209803571Y-71191961D02*
X209708333Y-71287200D01*
X209708333Y-71287200D02*
X209613095Y-71334819D01*
X209613095Y-71334819D02*
X209422619Y-71334819D01*
X209422619Y-71334819D02*
X209327381Y-71287200D01*
X209327381Y-71287200D02*
X209232143Y-71191961D01*
X209232143Y-71191961D02*
X209184524Y-71001485D01*
X209184524Y-71001485D02*
X209184524Y-70668152D01*
X209184524Y-70668152D02*
X209232143Y-70477676D01*
X209232143Y-70477676D02*
X209327381Y-70382438D01*
X209327381Y-70382438D02*
X209422619Y-70334819D01*
%TO.C,U3*%
D12*
X227000000Y-64000000D02*
X227000000Y-65380000D01*
X228380000Y-65380000D02*
X227000000Y-65380000D01*
X226190000Y-62500000D02*
X238190000Y-62500000D01*
X238190000Y-100500000D01*
X226190000Y-100500000D01*
X226190000Y-62500000D01*
%TO.C,SW3*%
X215305000Y-127385000D02*
X201335000Y-127385000D01*
X215305000Y-113415000D02*
X215305000Y-127385000D01*
X201335000Y-127385000D02*
X201335000Y-113415000D01*
X201335000Y-113415000D02*
X215305000Y-113415000D01*
%TO.C,SW2*%
X237505000Y-127385000D02*
X223535000Y-127385000D01*
X237505000Y-113415000D02*
X237505000Y-127385000D01*
X223535000Y-127385000D02*
X223535000Y-113415000D01*
X223535000Y-113415000D02*
X237505000Y-113415000D01*
%TO.C,SW1*%
X215305000Y-104585000D02*
X201335000Y-104585000D01*
X215305000Y-90615000D02*
X215305000Y-104585000D01*
X201335000Y-104585000D02*
X201335000Y-90615000D01*
X201335000Y-90615000D02*
X215305000Y-90615000D01*
D13*
%TO.C,U1*%
X199487285Y-61818295D02*
X199490333Y-61769527D01*
X199494397Y-61720506D01*
X199487285Y-61818295D01*
X217264492Y-78901574D02*
X217262713Y-78950850D01*
X217259665Y-78999618D01*
X217255601Y-79048639D01*
X217250268Y-79097407D01*
X217243664Y-79146175D01*
X217236044Y-79194690D01*
X217227153Y-79242950D01*
X217217248Y-79290955D01*
X217264492Y-78901574D01*
D14*
X197502000Y-61580000D02*
G75*
G02*
X197248000Y-61580000I-127000J0D01*
G01*
X197248000Y-61580000D02*
G75*
G02*
X197502000Y-61580000I127000J0D01*
G01*
D12*
X199475000Y-61880000D02*
G75*
G02*
X201475000Y-59880000I2044612J-44612D01*
G01*
X201475000Y-80880000D02*
G75*
G02*
X199475000Y-78880000I44857J2044857D01*
G01*
X215275000Y-59880000D02*
G75*
G02*
X217275000Y-61880000I-44610J-2044610D01*
G01*
X217275000Y-78880000D02*
G75*
G02*
X215275000Y-80880000I-2000000J0D01*
G01*
D15*
X201475000Y-80880000D02*
X215275000Y-80880000D01*
X203875000Y-65809270D02*
X203875000Y-58455970D01*
X215275000Y-59880910D02*
X201475000Y-59880910D01*
X203875000Y-58455970D02*
X212875000Y-58455970D01*
X199475000Y-61880000D02*
X199475000Y-78880000D01*
X212875000Y-58455970D02*
X212875000Y-65809270D01*
X212875000Y-65809270D02*
X203875000Y-65809270D01*
X217275000Y-78880000D02*
X217275000Y-61880000D01*
%TD*%
M02*
